# xmcd
#
# Track frame offsets:
#	182
#	10070
#	27795
#	40362
#	59765
#	79947
#	102107
#	115745
#	127237
#	144995
#	164500
#	185352
#
# Disc length: 2718 seconds
#
# Revision: 2
# Processed by: cddbd v1.4PL0 Copyright (c) Steve Scherf et al.
# Submitted via: audiograbber 1.81.01
#
DISCID=a10a9c0c
DTITLE=Various Blues - True Blues
DYEAR=1900
DGENRE=Blues
TTITLE0=Memphis Slim - Rockin' The Blues
TTITLE1=The James Cotton Band - Fannie Mae
TTITLE2=Barry Goldberg - That's Alright Mama
TTITLE3=Otis Rush - Otis RushAin't that Good News
TTITLE4=Buddy Guy - Love Her With A Feeling
TTITLE5=Lita Ford - Tambourine Dream
TTITLE6=Joe Ely - If You Were A Bluebird
TTITLE7=Charlie Musselwhite - Catwalk
TTITLE8=Chris Duarte - Borrowed Love
TTITLE9=Son Seals - Tell It To Another Fool
TTITLE10=The Jeff Healey Band - Cruel Little Number
TTITLE11=Koko Taylor - Spellbound
EXTD=
EXTT0=
EXTT1=
EXTT2=
EXTT3=
EXTT4=
EXTT5=
EXTT6=
EXTT7=
EXTT8=
EXTT9=
EXTT10=
EXTT11=
PLAYORDER=
